<svg width="190" height="219" viewBox="0 0 190 219" fill="none" xmlns="http://www.w3.org/2000/svg">
<path fill-rule="evenodd" clip-rule="evenodd" d="M156.988 219H33.0124C14.7826 219 0 204.521 0 186.683V32.308C0 14.4787 14.7733 0 33.0124 0H156.997C175.227 0 190 14.4694 190 32.308V186.683C190 204.531 175.227 219 156.988 219ZM172.291 80.097C170.312 75.0716 167.284 70.525 163.408 66.7599C159.478 62.9175 154.581 59.8454 148.709 57.5436C142.837 55.2512 136.026 53.9982 128.268 53.8033C125.415 53.8033 122.247 54.0818 118.791 54.6201C115.306 55.1769 111.971 55.8266 108.756 56.5691C105.859 57.2292 102.997 58.0315 100.18 58.973C97.6713 59.8176 96.0174 60.5508 95.1998 61.1448C94.4552 60.4874 93.6633 59.8856 92.8305 59.3442C91.3937 58.4021 89.8837 57.5765 88.3148 56.8754C86.2461 55.9454 84.0931 55.215 81.8852 54.6943C79.2268 54.0741 76.5035 53.7749 73.7738 53.8033C65.5973 53.8033 57.9226 54.9171 50.7311 57.1724C43.727 59.3124 37.2572 62.9123 31.7487 67.7344C26.2854 72.5328 21.9742 78.7234 18.8058 86.3155C15.6467 93.9075 14.0672 103.05 14.0672 113.742C14.0672 121.231 15.368 128.1 17.9696 134.346C20.5712 140.583 23.9904 145.901 28.2273 150.31C32.4549 154.7 39.4606 158.839 44.8125 161.28C49.8677 163.662 55.3812 164.916 60.9702 164.955C64.2315 164.955 66.7866 164.677 68.6263 164.129C70.4568 163.582 71.8876 162.96 72.9097 162.255C73.1141 162.162 73.2906 161.93 73.4486 161.586C73.5947 161.245 73.7189 160.895 73.8202 160.538C73.9317 160.185 73.9317 159.916 73.8202 159.702C73.7273 159.517 73.4672 159.517 73.0583 159.702C72.7948 159.816 72.5091 159.87 72.2221 159.86H71.3859C66.7754 159.858 62.2324 158.753 58.1363 156.639C53.8995 154.486 47.9437 150.523 44.6824 146.179C41.4118 141.836 38.7823 136.434 36.794 129.993C34.8056 123.552 33.8114 115.978 33.8114 107.3C33.8114 99.4113 34.7499 92.3854 36.6453 86.2412C38.5315 80.097 41.0123 74.9552 44.0692 70.8065C47.1353 66.6671 50.601 63.5208 54.4755 61.3675C58.3593 59.2236 62.2803 58.1469 66.2756 58.1469C70.7541 58.1469 74.6843 59.9196 78.0571 63.4651C81.4206 67.0105 83.5669 72.0781 84.4868 78.677C84.9978 81.7677 85.2487 85.8236 85.2487 90.8076V106.994C85.2487 113.89 85.1186 120.433 84.877 126.624C84.6169 132.824 83.5762 159.832 83.2139 164.575C83.1488 165.419 94.6423 164.983 102.819 165.624C102.912 156.342 103.218 131.172 103.32 123.181C103.413 112.294 103.525 103.003 103.627 95.309C103.72 87.6148 104.027 82.0183 104.547 78.5285C104.854 75.9298 105.588 73.3774 106.768 70.8808C107.916 68.4199 109.467 66.1677 111.358 64.2169C113.244 62.2678 115.464 60.69 118.019 59.4927C120.565 58.2954 123.316 57.6921 126.289 57.6921C135.98 57.6921 143.153 61.8409 147.798 70.129C152.444 78.4264 154.767 90.0094 154.767 104.897C154.767 112.888 153.968 120.257 152.388 126.995C150.809 133.743 148.635 139.59 145.884 144.537C143.125 149.474 139.91 153.354 136.24 156.138C132.561 158.941 128.621 160.343 124.44 160.343H123.223C122.799 160.315 122.383 160.211 121.996 160.036C121.69 159.944 121.383 160.064 121.076 160.408C120.765 160.766 120.576 161.215 120.537 161.688C120.485 162.174 120.565 162.665 120.77 163.108C120.974 163.563 121.383 163.786 121.996 163.786C128.99 163.8 135.898 162.239 142.205 159.22C148.765 156.073 154.566 151.545 159.208 145.947C164.096 140.165 168.007 133.093 170.915 124.749C173.824 116.415 175.282 106.892 175.282 96.2093C175.282 90.5106 174.279 85.146 172.291 80.097Z" fill="#971010"/>
</svg>
